# xmcd CD database file
#
# Track frame offsets:
#	150
#	14116
#	28191
#	43668
#	57857
#	70296
#	84035
#	97503
#	111496
#	125404
#	139276
#	152707
#	167065
#	182257
#	195688
#	209899
#	223886
#	238180
#	251056
#	264455
#
# Disc length: 3705 seconds
#
# Revision: 0
# Processed by: cddbd v1.5.2PL0 Copyright (c) Steve Scherf et al.
# Submitted via: CDex 1.51
#
DISCID=290e7714
DTITLE=Bix Beiderbecke - The Absolutely Essential CD2
DYEAR=2015
DGENRE=Jazz
TTITLE0=For No Reason At All In 'C'
TTITLE1=Three Blind Mice
TTITLE2=Blue River
TTITLE3=There's A Cradle In Caroline
TTITLE4=In A Mist
TTITLE5=Clementine (From New Orleans)
TTITLE6=Wringin' And Twistin'
TTITLE7=Humpty Dumpty
TTITLE8=Krazy Kat
TTITLE9=The Baltimore
TTITLE10=At The Jazz Band Ball
TTITLE11=Jazz Me Blues
TTITLE12=Goose Pimples
TTITLE13=Sorry
TTITLE14=Cryin' All Day
TTITLE15=A Good Man Is Hard To Find
TTITLE16=Since My Best Gal Turned Me Down
TTITLE17=Changes
TTITLE18=Lonely Melody
TTITLE19=There'll Come A Time
EXTD=YEAR: 2015
EXTT0=
EXTT1=
EXTT2=
EXTT3=
EXTT4=
EXTT5=
EXTT6=
EXTT7=
EXTT8=
EXTT9=
EXTT10=
EXTT11=
EXTT12=
EXTT13=
EXTT14=
EXTT15=
EXTT16=
EXTT17=
EXTT18=
EXTT19=
PLAYORDER=
